<svg width="64" height="64" viewBox="0 0 64 64" fill="none" xmlns="http://www.w3.org/2000/svg">
<style>
    
    #bg { fill: #171717; }
    #logo { fill: #FAFAFA; }

    @media (prefers-color-scheme: dark) {
      #bg { fill: #FAFAFA }
      #logo { fill: #171717 }
    }
  </style>
<rect id="bg" width="64" height="64" rx="8" />
<path id="logo" d="M19 52C17.8954 52 17 51.1046 17 50V14C17 12.8954 17.8954 12 19 12H32.3927C35.2984 12 37.7134 12.4557 39.6374 13.3672C41.5746 14.2656 43.0209 15.4961 43.9764 17.0586C44.945 18.6211 45.4293 20.3919 45.4293 22.3711C45.4293 23.9987 45.1152 25.3919 44.4869 26.5508C43.8586 27.6966 43.0144 28.6276 41.9542 29.3438C40.9407 30.0283 39.8137 30.5285 38.573 30.8442C38.4721 30.8699 38.4005 30.9602 38.4005 31.0643C38.4005 31.1838 38.494 31.2821 38.6131 31.2917C39.9632 31.3998 41.2602 31.8312 42.5039 32.5859C43.8259 33.3672 44.9058 34.474 45.7435 35.9062C46.5812 37.3385 47 39.0703 47 41.1016C47 43.1719 46.4961 45.0339 45.4882 46.6875C44.4804 48.3281 42.962 49.6237 40.9332 50.5742C38.9045 51.5247 36.3521 52 33.2762 52H19ZM24.284 43.9453C24.284 45.0499 25.1795 45.9453 26.284 45.9453H32.1178C34.7618 45.9453 36.6662 45.444 37.8312 44.4414C39.0092 43.4258 39.5982 42.1237 39.5982 40.5352C39.5982 39.3503 39.3037 38.2826 38.7147 37.332C38.1257 36.3685 37.288 35.6133 36.2016 35.0664C35.1152 34.5065 33.8194 34.2266 32.3141 34.2266H26.284C25.1795 34.2266 24.284 35.122 24.284 36.2266V43.9453ZM24.284 27.0117C24.284 28.1163 25.1795 29.0117 26.284 29.0117H31.4895C32.7461 29.0117 33.8783 28.7839 34.8861 28.3281C35.894 27.8594 36.6859 27.2018 37.2618 26.3555C37.8508 25.4961 38.1453 24.4805 38.1453 23.3086C38.1453 21.7591 37.5955 20.4831 36.4961 19.4805C35.4097 18.4779 33.7932 17.9766 31.6466 17.9766H26.284C25.1795 17.9766 24.284 18.872 24.284 19.9766V27.0117Z" />
</svg>
